<svg width="41" height="40" viewBox="0 0 41 40" fill="none" xmlns="http://www.w3.org/2000/svg">
<g clip-path="url(#clip0_3032_1679)">
<path d="M20.0015 37.5C15.3602 37.5 10.909 35.6563 7.6271 32.3744C4.34521 29.0925 2.50146 24.6413 2.50146 20C2.50146 15.3587 4.34521 10.9075 7.6271 7.62563C10.909 4.34374 15.3602 2.5 20.0015 2.5C24.6428 2.5 29.0939 4.34374 32.3758 7.62563C35.6577 10.9075 37.5015 15.3587 37.5015 20C37.5015 24.6413 35.6577 29.0925 32.3758 32.3744C29.0939 35.6563 24.6428 37.5 20.0015 37.5ZM20.0015 40C25.3058 40 30.3929 37.8929 34.1436 34.1421C37.8943 30.3914 40.0015 25.3043 40.0015 20C40.0015 14.6957 37.8943 9.60859 34.1436 5.85786C30.3929 2.10714 25.3058 0 20.0015 0C14.6971 0 9.61006 2.10714 5.85933 5.85786C2.1086 9.60859 0.00146484 14.6957 0.00146484 20C0.00146484 25.3043 2.1086 30.3914 5.85933 34.1421C9.61006 37.8929 14.6971 40 20.0015 40Z" fill="#B57173"/>
<path d="M20.0015 10C20.333 10 20.6509 10.1317 20.8853 10.3661C21.1198 10.6005 21.2515 10.9185 21.2515 11.25V18.75H28.7515C29.083 18.75 29.4009 18.8817 29.6353 19.1161C29.8698 19.3505 30.0015 19.6685 30.0015 20C30.0015 20.3315 29.8698 20.6495 29.6353 20.8839C29.4009 21.1183 29.083 21.25 28.7515 21.25H21.2515V28.75C21.2515 29.0815 21.1198 29.3995 20.8853 29.6339C20.6509 29.8683 20.333 30 20.0015 30C19.6699 30 19.352 29.8683 19.1176 29.6339C18.8832 29.3995 18.7515 29.0815 18.7515 28.75V21.25H11.2515C10.9199 21.25 10.602 21.1183 10.3676 20.8839C10.1332 20.6495 10.0015 20.3315 10.0015 20C10.0015 19.6685 10.1332 19.3505 10.3676 19.1161C10.602 18.8817 10.9199 18.75 11.2515 18.75H18.7515V11.25C18.7515 10.9185 18.8832 10.6005 19.1176 10.3661C19.352 10.1317 19.6699 10 20.0015 10Z" fill="#B57173"/>
</g>
<defs>
<clipPath id="clip0_3032_1679">
<rect width="40" height="40" fill="white" transform="translate(0.00146484)"/>
</clipPath>
</defs>
</svg>
