<svg width="24" height="24" viewBox="0 0 24 24" fill="none" xmlns="http://www.w3.org/2000/svg">
<path d="M4.2101 9.07018C6.2701 7.02018 9.2201 6.39018 11.8101 7.20018L16.5201 2.50018C16.8601 2.15018 17.5301 1.94018 18.0101 2.01018L20.1901 2.31017C20.9101 2.41017 21.5801 3.09017 21.6901 3.81017L21.9901 5.99018C22.0601 6.47018 21.8301 7.14018 21.5001 7.48018L16.8001 12.1802C17.6001 14.7802 16.9801 17.7302 14.9201 19.7802C11.9701 22.7302 7.1801 22.7302 4.2201 19.7802C1.2601 16.8302 1.2601 12.0202 4.2101 9.07018Z" stroke="#757575" stroke-width="1.5" stroke-miterlimit="10" stroke-linecap="round" stroke-linejoin="round"/>
<path d="M17.1101 6.50977L14.8101 4.20976" stroke="#757575" stroke-width="1.5" stroke-miterlimit="10" stroke-linecap="round" stroke-linejoin="round"/>
<path d="M9.5 13C8.67157 13 8 13.6716 8 14.5C8 15.3284 8.67157 16 9.5 16C10.3284 16 11 15.3284 11 14.5C11 13.6716 10.3284 13 9.5 13Z" stroke="#757575" stroke-width="1.5" stroke-linecap="round" stroke-linejoin="round"/>
</svg>
