<svg width="25" height="26" viewBox="0 0 25 26" fill="none" xmlns="http://www.w3.org/2000/svg">
<path fill-rule="evenodd" clip-rule="evenodd" d="M13.7184 16.9494C15.1279 16.9496 16.2751 18.0356 16.275 19.3703L16.2745 22.8032C16.2745 23.09 16.5156 23.3199 16.8247 23.3266L19.0561 23.3269C20.8146 23.3272 22.2442 21.9814 22.2444 20.3275L22.2456 10.5915C22.2375 10.0223 21.9531 9.48658 21.4649 9.13051L13.747 3.26158C12.711 2.47913 11.2617 2.47894 10.222 3.26336L2.55527 9.1259C2.0483 9.493 1.76374 10.0286 1.75782 10.6079L1.75659 20.3249C1.75638 21.9788 3.18568 23.3249 4.94411 23.3251L7.1966 23.3254C7.51387 23.3255 7.77146 23.0856 7.7715 22.7909C7.77151 22.7262 7.77971 22.6615 7.79377 22.6001L7.79417 19.3693C7.79434 18.0423 8.93477 16.9577 10.3338 16.949L13.7184 16.9494ZM19.0559 25.0009L16.8034 25.0007C15.5133 24.9715 14.5183 24.006 14.5184 22.8029L14.5189 19.3701C14.5189 18.9583 14.1595 18.6235 13.7182 18.6234L10.3394 18.623C9.90744 18.6252 9.55032 18.961 9.55027 19.3695L9.54984 22.7912C9.54983 22.8749 9.53811 22.9552 9.51352 23.0311C9.38694 24.1359 8.39639 24.9996 7.19639 24.9994L4.9439 24.9992C2.21727 24.9988 0.000168119 22.9016 0.000493014 20.3247L0.00171914 10.5998C0.0135663 9.49051 0.54989 8.47501 1.47602 7.80664L9.12749 1.95415C10.8123 0.682115 13.1597 0.682411 14.8407 1.95264L22.5457 7.81264C23.4506 8.47009 23.9866 9.48349 24.0017 10.5794L24.0005 20.3277C24.0002 22.9046 21.7825 25.0013 19.0559 25.0009Z" fill="#B57173"/>
</svg>
