<svg width="17" height="21" viewBox="0 0 17 21" fill="none" xmlns="http://www.w3.org/2000/svg">
<path d="M2 20.5C1.45 20.5 0.979 20.3043 0.587 19.913C0.195667 19.521 0 19.05 0 18.5V4.5H2V18.5H13V20.5H2ZM6 16.5C5.45 16.5 4.97933 16.3043 4.588 15.913C4.196 15.521 4 15.05 4 14.5V2.5C4 1.95 4.196 1.479 4.588 1.087C4.97933 0.695667 5.45 0.5 6 0.5H15C15.55 0.5 16.021 0.695667 16.413 1.087C16.8043 1.479 17 1.95 17 2.5V14.5C17 15.05 16.8043 15.521 16.413 15.913C16.021 16.3043 15.55 16.5 15 16.5H6ZM6 14.5H15V2.5H6V14.5ZM6 14.5V2.5V14.5Z" fill="#1F1F1F" fill-opacity="0.45"/>
</svg>
