<svg width="365" height="245" viewBox="0 0 365 245" fill="none" xmlns="http://www.w3.org/2000/svg">
<path d="M147.679 158.974L79.7831 200.475L12.9141 109.114L80.8106 67.6135L147.679 158.974Z" fill="#F3F2F1"/>
<path d="M112.603 154.643L111.832 159.001L78.0801 154.557L78.851 150.2L112.603 154.643Z" fill="#DADBD8"/>
<path d="M95.6041 139.096L100.447 139.734L95.0776 170.102L90.2344 169.465L95.6041 139.096Z" fill="#DADBD8"/>
<path d="M64.5166 100.498C64.565 100.565 57.7609 104.801 49.3215 109.96C40.8787 115.12 33.9975 119.249 33.9495 119.183C33.9011 119.117 40.7037 114.881 49.1462 109.721C57.5858 104.562 64.4688 100.433 64.5166 100.498Z" fill="#DADBD8"/>
<path d="M89.4859 94.7697C89.5343 94.8361 78.2192 101.83 64.2168 110.388C50.209 118.951 38.8182 125.835 38.7697 125.769C38.7212 125.703 50.0339 118.711 64.0413 110.149C78.0444 101.59 89.4375 94.7034 89.4859 94.7697Z" fill="#DADBD8"/>
<path d="M94.4895 101.609C94.5386 101.675 83.2234 108.669 69.2204 117.227C55.2129 125.79 43.8218 132.674 43.7736 132.609C43.7251 132.542 55.0378 125.55 69.0455 116.989C83.048 108.429 94.4411 101.543 94.4895 101.609Z" fill="#DADBD8"/>
<path d="M99.4959 108.446C99.5444 108.512 88.2292 115.506 74.2268 124.065C60.2188 132.627 48.8279 139.512 48.7795 139.446C48.7312 139.38 60.0434 132.387 74.0513 123.826C88.0538 115.267 99.4475 108.38 99.4959 108.446Z" fill="#DADBD8"/>
<path d="M104.5 115.285C104.548 115.351 93.2328 122.344 79.2304 130.903C65.2225 139.465 53.8318 146.35 53.7834 146.284C53.7349 146.218 65.0476 139.226 79.0549 130.664C93.058 122.105 104.451 115.219 104.5 115.285Z" fill="#DADBD8"/>
<path d="M364.001 205.571L306.98 240.424L250.822 163.697L307.843 128.844L364.001 205.571Z" fill="#F3F2F1"/>
<path d="M334.543 201.933L333.896 205.593L305.551 201.861L306.198 198.201L334.543 201.933Z" fill="#DADBD8"/>
<path d="M320.266 188.877L324.333 189.411L319.823 214.916L315.756 214.381L320.266 188.877Z" fill="#DADBD8"/>
<path d="M294.158 156.46C294.207 156.526 288.499 160.092 281.411 164.425C274.32 168.759 268.535 172.218 268.487 172.151C268.438 172.085 274.146 168.519 281.236 164.186C288.323 159.853 294.11 156.394 294.158 156.46Z" fill="#DADBD8"/>
<path d="M315.127 151.65C315.175 151.716 305.679 157.598 293.92 164.786C282.156 171.977 272.584 177.751 272.535 177.684C272.487 177.618 281.981 171.738 293.744 164.547C305.505 157.359 315.078 151.584 315.127 151.65Z" fill="#DADBD8"/>
<path d="M319.331 157.393C319.38 157.459 309.882 163.341 298.123 170.529C286.36 177.72 276.787 183.493 276.738 183.427C276.691 183.361 286.184 177.48 297.949 170.29C309.708 163.101 319.283 157.327 319.331 157.393Z" fill="#DADBD8"/>
<path d="M323.534 163.137C323.582 163.202 314.086 169.085 302.326 176.273C290.563 183.463 280.99 189.236 280.942 189.171C280.893 189.105 290.387 183.224 302.151 176.033C313.911 168.845 323.485 163.07 323.534 163.137Z" fill="#DADBD8"/>
<path d="M327.738 168.879C327.787 168.945 318.291 174.827 306.531 182.015C294.767 189.206 285.195 194.979 285.147 194.913C285.098 194.847 294.592 188.967 306.356 181.776C318.115 174.588 327.69 168.813 327.738 168.879Z" fill="#DADBD8"/>
<path d="M168.638 154.68L106.422 124.273L155.417 40.5548L217.633 70.9621L168.638 154.68Z" fill="#F3F2F1"/>
<path d="M157.988 128.492L154.04 129.727L144.021 104.415L147.969 103.18L157.988 128.492Z" fill="#DADBD8"/>
<path d="M164.037 110.333L165.475 113.965L137.967 122.574L136.529 118.942L164.037 110.333Z" fill="#DADBD8"/>
<path d="M183.583 72.9874C183.534 73.0709 177.224 70.0732 169.49 66.2936C161.754 62.5128 155.524 59.3813 155.573 59.2978C155.621 59.2143 161.93 62.2114 169.667 65.9922C177.4 69.7724 183.632 72.9045 183.583 72.9874Z" fill="#DADBD8"/>
<path d="M198.516 88.0456C198.467 88.1291 188.023 83.1119 175.193 76.8405C162.357 70.5669 151.995 65.4159 152.043 65.333C152.092 65.2495 162.533 70.2661 175.369 76.5392C188.2 82.8105 198.564 87.9627 198.516 88.0456Z" fill="#DADBD8"/>
<path d="M194.847 94.3121C194.799 94.3956 184.355 89.3784 171.524 83.107C158.689 76.834 148.326 71.6824 148.375 71.5989C148.424 71.516 158.865 76.5321 171.701 82.8057C184.531 89.077 194.896 94.2292 194.847 94.3121Z" fill="#DADBD8"/>
<path d="M191.179 100.578C191.131 100.661 180.688 95.6441 167.857 89.3727C155.021 83.0992 144.659 77.9481 144.707 77.8646C144.756 77.7817 155.197 82.7978 168.033 89.0714C180.864 95.3422 191.229 100.495 191.179 100.578Z" fill="#DADBD8"/>
<path d="M187.513 106.844C187.465 106.928 177.021 101.91 164.19 95.6394C151.355 89.3658 140.992 84.2147 141.041 84.1312C141.09 84.0477 151.531 89.0644 164.367 95.3374C177.197 101.609 187.562 106.762 187.513 106.844Z" fill="#DADBD8"/>
<path d="M186.273 24.321H187.837V-0.000959396H186.273V24.321Z" fill="#C3C5C2"/>
<path d="M150.611 53.741H223.503C223.503 53.741 216.773 24.3041 186.505 24.3041C159.583 24.3041 150.611 53.741 150.611 53.741Z" fill="#9C1C21"/>
<path d="M187.836 -0.000852585H186.273V24.321H187.836V-0.000852585Z" fill="#FCB997"/>
<path d="M349.348 243.211C349.348 243.291 271.138 243.355 174.682 243.355C78.1937 243.355 0 243.291 0 243.211C0 243.131 78.1937 243.067 174.682 243.067C271.138 243.067 349.348 243.131 349.348 243.211Z" fill="#17282F"/>
<path d="M19.3326 208.58C21.3787 208.645 23.2989 209.661 24.6486 211.067C25.9981 212.474 26.8254 214.244 27.3543 216.05C28.3783 219.547 27.749 223.674 26.6577 227.153C22.5154 225.801 19.9607 221.763 18.8058 219.641C16.9801 216.286 15.9095 209.21 19.3326 208.58Z" fill="#9C1C21"/>
<path d="M32.6204 231.392C31.3132 229.677 31.2825 227.292 32.3159 225.428C33.3491 223.563 35.3339 222.219 37.5201 221.605C38.5308 221.322 39.7039 221.202 40.5832 221.739C41.405 222.241 41.7603 223.225 41.6542 224.124C41.5485 225.022 41.05 225.843 40.4629 226.57C38.4487 229.062 35.999 231.137 32.6204 231.392Z" fill="#9C1C21"/>
<path d="M33.0764 243.076C33.0563 243.079 32.9937 242.819 32.8911 242.35C32.7805 241.831 32.637 241.161 32.4652 240.356C32.1383 238.681 31.6194 236.298 32.0118 233.664C32.3888 231.041 33.5314 228.799 34.7289 227.46C35.3186 226.783 35.8826 226.303 36.3003 226.009C36.5023 225.854 36.6806 225.758 36.7933 225.685C36.9091 225.616 36.9727 225.583 36.9784 225.59C37.0236 225.636 36.01 226.207 34.8901 227.573C33.7555 228.916 32.6677 231.12 32.2964 233.698C31.9102 236.279 32.3883 238.64 32.6649 240.325C32.8131 241.171 32.9327 241.857 33.0015 242.333C33.0703 242.809 33.0953 243.073 33.0764 243.076Z" fill="#17282F"/>
<path d="M20.6692 213.903C20.6784 213.899 20.7353 213.998 20.836 214.19C20.9464 214.408 21.088 214.686 21.2627 215.032C21.6288 215.766 22.1436 216.834 22.7671 218.159C24.0152 220.807 25.6835 224.487 27.4248 228.589C29.1655 232.694 30.6494 236.44 31.6814 239.165C32.1978 240.527 32.6056 241.633 32.8765 242.4C33.0022 242.763 33.1039 243.057 33.1828 243.286C33.2499 243.489 33.2807 243.597 33.2712 243.6C33.2622 243.603 33.213 243.501 33.1282 243.303C33.036 243.078 32.9176 242.79 32.771 242.433C32.4564 241.645 32.0217 240.558 31.4902 239.227C30.4097 236.519 28.8967 232.786 27.1572 228.685C25.4171 224.585 23.7798 220.896 22.5802 218.23C21.9907 216.92 21.5092 215.849 21.1603 215.073C21.0055 214.719 20.8805 214.433 20.7828 214.211C20.6996 214.013 20.6604 213.906 20.6692 213.903Z" fill="#17282F"/>
<path d="M28.1596 235.346C25.7165 231.547 21.1555 228.957 16.3468 228.639C15.1221 228.557 13.6494 228.745 13.1033 229.751C12.5561 230.757 13.2877 231.948 14.1221 232.774C17.5932 236.21 23.4646 237.408 28.205 235.647" fill="#9C1C21"/>
<path d="M18.2129 231.634C18.2144 231.617 18.4867 231.627 18.9797 231.66C19.2262 231.676 19.5285 231.696 19.8744 231.756C20.219 231.814 20.6206 231.848 21.0477 231.957C21.4776 232.054 21.9525 232.15 22.4437 232.311C22.9445 232.447 23.4589 232.642 23.9992 232.852C25.0667 233.294 26.1994 233.875 27.2775 234.628C28.3477 235.39 29.2521 236.242 29.9869 237.078C30.3408 237.507 30.6781 237.912 30.9414 238.325C31.2324 238.721 31.4485 239.12 31.6515 239.48C31.8689 239.833 31.997 240.183 32.1389 240.476C32.2826 240.77 32.3717 241.035 32.4433 241.251C32.5901 241.683 32.6617 241.922 32.6428 241.928C32.5816 241.947 32.2873 240.98 31.4711 239.565C31.2591 239.215 31.0362 238.828 30.741 238.442C30.4734 238.041 30.1335 237.646 29.7806 237.229C29.0462 236.416 28.1534 235.584 27.102 234.836C26.0431 234.096 24.935 233.52 23.8905 233.072C23.3615 232.86 22.8583 232.659 22.3676 232.518C21.8871 232.349 21.4214 232.244 20.9997 232.137C19.3014 231.745 18.2066 231.691 18.2129 231.634Z" fill="#17282F"/>
<path d="M292.888 58.3232C291.109 58.6975 290.243 60.5683 290.075 62.2294C289.906 63.8912 290.138 65.6458 289.375 67.1615C288.515 68.8674 286.462 70.1249 286.394 72.0018C286.353 73.1464 287.096 74.2225 287.061 75.3667C287.002 77.2468 284.904 78.6669 284.794 80.5448C284.715 81.8968 285.701 83.1941 285.464 84.5307C285.279 85.5714 284.393 86.3909 284.018 87.3874C283.271 89.3743 284.765 91.5613 286.71 92.68C288.878 93.9259 291.655 94.2477 294.094 93.5355C296.534 92.8232 298.592 91.0896 299.568 88.9258C300.644 86.5375 300.409 83.8483 300.174 81.2742C299.445 73.2531 298.904 65.2178 298.55 57.1752" fill="#17282F"/>
<path d="M287.723 86.6296C287.685 86.5975 288.209 86.4554 288.535 85.7459C288.694 85.3987 288.775 84.9325 288.743 84.3961C288.722 83.8558 288.521 83.268 288.301 82.6055C288.098 81.948 287.835 81.186 287.986 80.3378C288.138 79.4768 288.812 78.7701 289.428 78.075C289.737 77.7227 290.049 77.3572 290.245 76.9402C290.451 76.5283 290.495 76.0566 290.34 75.6142C290.027 74.7106 289.058 74.0465 288.613 73.003C288.393 72.4804 288.391 71.9064 288.517 71.3894C288.636 70.8674 288.868 70.394 289.1 69.9422C289.574 69.042 290.096 68.2164 290.303 67.3404C290.727 65.5864 290.529 63.912 290.818 62.5367C291.08 61.1587 291.717 60.1224 292.348 59.5898C292.655 59.3145 292.953 59.1679 293.147 59.0695C293.354 58.9882 293.464 58.9506 293.468 58.9594C293.488 58.9904 293.019 59.122 292.435 59.6689C291.851 60.2081 291.266 61.2217 291.037 62.5704C290.918 63.2412 290.899 63.9955 290.869 64.805C290.838 65.614 290.811 66.4927 290.585 67.4007C290.375 68.3209 289.839 69.1791 289.379 70.0633C288.924 70.9321 288.506 71.9507 288.909 72.9029C289.293 73.8441 290.268 74.5126 290.634 75.5296C290.813 76.0355 290.754 76.5963 290.521 77.0497C290.299 77.5109 289.969 77.888 289.654 78.242C289.021 78.9409 288.388 79.6062 288.243 80.3798C288.092 81.1495 288.325 81.8922 288.516 82.5491C288.719 83.2072 288.914 83.8265 288.919 84.3889C288.935 84.9463 288.832 85.4318 288.648 85.7907C288.466 86.1518 288.216 86.3747 288.028 86.4886C287.842 86.6053 287.723 86.6296 287.723 86.6296Z" fill="#33535F"/>
<path d="M282.958 99.736L277.497 114.126L254.718 115.242L250.92 122.966L274.701 125.164C279.443 126.956 284.861 124.76 286.591 120.346L292.938 104.157L282.958 99.736Z" fill="#FCB997"/>
<path d="M330.072 235.398C330.072 235.398 313.379 186.947 313.025 185.374C312.704 183.953 319.082 149.087 319.886 140.063L297.331 140.831C297.331 140.831 297.331 140.886 297.329 140.981L287.742 141.467L296.329 240.557H306.708L305.679 207.682C312.079 223.384 321.25 239.386 321.25 239.386L330.072 235.398Z" fill="#FCB997"/>
<path d="M306.105 219.464C306.114 219.163 305.979 208.449 305.979 208.449C305.85 209.09 302 199.146 302.093 198.542C302.141 198.229 306.105 219.464 306.105 219.464Z" fill="#FFBE9D"/>
<path d="M301.654 193.833C301.63 193.833 301.608 194.047 301.587 194.434C301.565 194.822 301.56 195.384 301.601 196.077C301.616 196.425 301.656 196.804 301.705 197.21C301.762 197.615 301.822 198.05 301.925 198.501C302.113 199.405 302.404 200.384 302.773 201.388C303.527 203.392 304.359 205.145 304.949 206.417C305.229 206.997 305.469 207.497 305.671 207.915C305.848 208.266 305.957 208.457 305.979 208.449C306.002 208.441 305.935 208.235 305.796 207.869C305.657 207.504 305.445 206.979 305.175 206.334C304.642 205.04 303.847 203.273 303.1 201.287C302.734 200.292 302.439 199.331 302.237 198.443C302.126 198.001 302.056 197.574 301.989 197.176C301.927 196.776 301.874 196.404 301.844 196.061C301.773 195.377 301.74 194.819 301.722 194.433C301.701 194.048 301.678 193.834 301.654 193.833Z" fill="#FFBE9D"/>
<path d="M296.136 241.044L296.132 240.153L306.763 239.73L306.792 243.405L306.136 243.445C303.218 243.601 291.286 244.051 289.333 243.516C287.155 242.919 296.136 241.044 296.136 241.044Z" fill="#33535F"/>
<path d="M306.941 243.183C306.941 243.187 306.879 243.193 306.759 243.201C306.603 243.21 306.431 243.22 306.237 243.232C305.715 243.254 305.073 243.281 304.315 243.314C302.692 243.372 300.447 243.427 297.968 243.437C295.488 243.446 293.243 243.41 291.62 243.365C290.861 243.338 290.219 243.316 289.697 243.298C289.503 243.288 289.331 243.279 289.174 243.272C289.055 243.264 288.992 243.258 288.992 243.255C288.992 243.25 289.055 243.248 289.175 243.248C289.332 243.249 289.504 243.251 289.698 243.253C290.221 243.26 290.863 243.27 291.621 243.281C293.245 243.306 295.489 243.329 297.968 243.32C300.446 243.309 302.689 243.269 304.312 243.231C305.07 243.213 305.713 243.198 306.235 243.186C306.429 243.183 306.601 243.18 306.758 243.177C306.879 243.177 306.941 243.178 306.941 243.183Z" fill="#17282F"/>
<path d="M292.691 243.496C292.652 243.501 292.62 243.081 292.329 242.659C292.045 242.231 291.649 242.018 291.671 241.989C291.677 241.959 292.132 242.14 292.437 242.597C292.748 243.051 292.722 243.503 292.691 243.496Z" fill="#17282F"/>
<path d="M295.805 242.039C295.775 242.057 295.625 241.891 295.471 241.669C295.315 241.448 295.213 241.254 295.244 241.236C295.273 241.219 295.423 241.385 295.578 241.606C295.734 241.828 295.835 242.021 295.805 242.039Z" fill="#17282F"/>
<path d="M296.661 241.622C296.637 241.646 296.47 241.545 296.288 241.396C296.104 241.247 295.975 241.107 295.999 241.083C296.022 241.059 296.189 241.16 296.372 241.309C296.555 241.458 296.684 241.598 296.661 241.622Z" fill="#17282F"/>
<path d="M297.201 240.707C297.201 240.739 296.954 240.769 296.649 240.773C296.344 240.777 296.096 240.754 296.096 240.722C296.095 240.689 296.342 240.66 296.648 240.656C296.953 240.652 297.2 240.674 297.201 240.707Z" fill="#17282F"/>
<path d="M297.382 240.063C297.394 240.092 297.125 240.204 296.767 240.23C296.409 240.256 296.124 240.184 296.131 240.154C296.136 240.121 296.416 240.138 296.757 240.112C297.097 240.089 297.371 240.031 297.382 240.063Z" fill="#17282F"/>
<path d="M295.445 241.196C295.445 241.209 295.185 241.239 294.765 241.194C294.555 241.172 294.307 241.128 294.041 241.051C293.908 241.008 293.769 240.976 293.626 240.897C293.559 240.856 293.484 240.798 293.457 240.704C293.428 240.611 293.482 240.506 293.559 240.455C294.207 240.145 294.859 240.477 295.102 240.783C295.235 240.94 295.296 241.092 295.325 241.198C295.353 241.303 295.351 241.364 295.343 241.365C295.319 241.373 295.296 241.121 295.031 240.837C294.901 240.697 294.703 240.561 294.449 240.493C294.209 240.429 293.868 240.413 293.64 240.546C293.532 240.62 293.574 240.736 293.695 240.8C293.807 240.866 293.951 240.906 294.077 240.949C294.335 241.028 294.575 241.08 294.778 241.113C295.185 241.177 295.445 241.177 295.445 241.196Z" fill="#17282F"/>
<path d="M295.268 241.228C295.258 241.235 295.157 241.077 295.187 240.797C295.204 240.66 295.257 240.497 295.371 240.343C295.49 240.205 295.644 240.014 295.936 240.025C296.093 240.042 296.171 240.206 296.146 240.31C296.135 240.42 296.082 240.513 296.033 240.588C295.932 240.744 295.818 240.87 295.713 240.965C295.5 241.156 295.332 241.229 295.325 241.218C295.313 241.203 295.46 241.106 295.647 240.909C295.739 240.81 295.84 240.685 295.93 240.535C296.022 240.403 296.085 240.168 295.914 240.14C295.745 240.125 295.572 240.281 295.468 240.405C295.362 240.54 295.303 240.685 295.277 240.81C295.227 241.063 295.29 241.224 295.268 241.228Z" fill="#17282F"/>
<path d="M306.716 240.538C306.714 240.56 306.413 240.513 305.935 240.566C305.462 240.616 304.804 240.796 304.233 241.214C303.662 241.634 303.328 242.182 303.173 242.594C303.013 243.008 302.999 243.287 302.974 243.284C302.966 243.284 302.963 243.214 302.973 243.089C302.984 242.964 303.016 242.784 303.086 242.568C303.224 242.138 303.557 241.56 304.152 241.122C304.748 240.686 305.438 240.514 305.926 240.484C306.172 240.468 306.372 240.478 306.508 240.495C306.644 240.513 306.717 240.531 306.716 240.538Z" fill="#17282F"/>
<path d="M301.622 242.413C301.627 242.443 300.937 242.544 300.077 242.547C299.217 242.552 298.527 242.458 298.531 242.427C298.534 242.394 299.225 242.435 300.077 242.43C300.929 242.426 301.618 242.379 301.622 242.413Z" fill="#17282F"/>
<path d="M303.695 242.392C303.721 242.416 303.639 242.526 303.569 242.671C303.497 242.816 303.461 242.945 303.425 242.942C303.391 242.942 303.369 242.79 303.452 242.623C303.533 242.456 303.673 242.369 303.695 242.392Z" fill="#17282F"/>
<path d="M304.473 241.5C304.497 241.523 304.43 241.623 304.321 241.725C304.211 241.827 304.103 241.892 304.077 241.87C304.053 241.847 304.12 241.746 304.229 241.643C304.338 241.541 304.447 241.478 304.473 241.5Z" fill="#17282F"/>
<path d="M305.589 241.09C305.582 241.123 305.442 241.122 305.287 241.173C305.13 241.22 305.019 241.299 304.991 241.278C304.964 241.26 305.052 241.122 305.245 241.062C305.437 241.001 305.6 241.06 305.589 241.09Z" fill="#17282F"/>
<path d="M306.383 240.897C306.397 240.928 306.336 240.977 306.248 241.008C306.161 241.041 306.079 241.041 306.066 241.011C306.053 240.981 306.114 240.931 306.201 240.9C306.289 240.868 306.371 240.867 306.383 240.897Z" fill="#17282F"/>
<path d="M321.044 240.188L320.64 239.377L330.15 235.011L331.823 238.352L331.242 238.634C328.651 239.869 317.967 244.746 315.945 244.989C313.691 245.26 321.044 240.188 321.044 240.188Z" fill="#33535F"/>
<path d="M331.86 238.093C331.862 238.096 331.808 238.126 331.702 238.178C331.564 238.245 331.412 238.319 331.239 238.401C330.774 238.618 330.2 238.882 329.523 239.196C328.068 239.857 326.045 240.746 323.788 241.684C321.529 242.621 319.465 243.428 317.963 243.995C317.26 244.254 316.664 244.475 316.18 244.654C315.999 244.717 315.838 244.774 315.691 244.825C315.579 244.863 315.519 244.882 315.518 244.878C315.516 244.874 315.573 244.848 315.682 244.803C315.826 244.746 315.982 244.683 316.16 244.612C316.641 244.423 317.232 244.192 317.928 243.918C319.421 243.333 321.478 242.514 323.735 241.577C325.991 240.64 328.018 239.763 329.483 239.122C330.167 238.821 330.746 238.568 331.217 238.361C331.393 238.285 331.549 238.218 331.69 238.157C331.8 238.112 331.858 238.09 331.86 238.093Z" fill="#17282F"/>
<path d="M319 243.713C318.967 243.732 318.749 243.361 318.294 243.085C317.844 242.801 317.387 242.755 317.393 242.719C317.387 242.69 317.882 242.685 318.366 242.988C318.853 243.285 319.032 243.708 319 243.713Z" fill="#17282F"/>
<path d="M321.19 241.217C321.171 241.244 320.959 241.149 320.719 241.005C320.478 240.861 320.298 240.722 320.318 240.696C320.337 240.668 320.548 240.763 320.789 240.907C321.03 241.051 321.209 241.19 321.19 241.217Z" fill="#17282F"/>
<path d="M321.783 240.517C321.773 240.548 321.575 240.518 321.342 240.451C321.107 240.383 320.927 240.303 320.938 240.272C320.949 240.241 321.147 240.271 321.38 240.339C321.613 240.406 321.794 240.486 321.783 240.517Z" fill="#17282F"/>
<path d="M321.863 239.481C321.879 239.511 321.666 239.63 321.39 239.749C321.113 239.867 320.877 239.939 320.862 239.91C320.848 239.88 321.059 239.761 321.336 239.642C321.612 239.524 321.849 239.452 321.863 239.481Z" fill="#17282F"/>
<path d="M321.742 238.826C321.766 238.848 321.571 239.05 321.254 239.207C320.94 239.366 320.648 239.407 320.641 239.377C320.631 239.344 320.894 239.255 321.193 239.105C321.493 238.955 321.717 238.801 321.742 238.826Z" fill="#17282F"/>
<path d="M320.483 240.584C320.49 240.596 320.265 240.721 319.862 240.837C319.661 240.895 319.415 240.947 319.137 240.977C318.997 240.988 318.857 241.011 318.69 240.991C318.609 240.979 318.515 240.955 318.449 240.879C318.381 240.805 318.383 240.689 318.431 240.614C318.883 240.089 319.627 240.147 319.985 240.336C320.177 240.429 320.301 240.545 320.374 240.63C320.447 240.717 320.472 240.772 320.466 240.776C320.447 240.792 320.314 240.571 319.945 240.41C319.764 240.332 319.522 240.283 319.26 240.315C319.012 240.347 318.693 240.459 318.545 240.667C318.48 240.774 318.57 240.864 318.709 240.878C318.841 240.896 318.991 240.878 319.125 240.87C319.396 240.847 319.638 240.804 319.838 240.757C320.238 240.664 320.474 240.566 320.483 240.584Z" fill="#17282F"/>
<path d="M320.335 240.68C320.329 240.69 320.166 240.583 320.068 240.317C320.021 240.186 319.998 240.017 320.032 239.834C320.079 239.663 320.134 239.432 320.404 239.332C320.556 239.289 320.911 239.568 320.935 239.673C320.973 239.777 320.756 239.723 320.745 239.81C320.723 239.99 320.675 240.147 320.622 240.274C320.514 240.528 320.394 240.657 320.382 240.65C320.364 240.64 320.455 240.497 320.537 240.247C320.577 240.122 320.613 239.97 320.627 239.8C320.653 239.645 320.604 239.407 320.437 239.445C320.275 239.496 320.187 239.702 320.148 239.854C320.112 240.017 320.123 240.171 320.155 240.295C320.222 240.544 320.353 240.667 320.335 240.68Z" fill="#17282F"/>
<path d="M330.471 235.768C330.479 235.788 330.183 235.858 329.771 236.085C329.362 236.307 328.842 236.718 328.509 237.313C328.176 237.909 328.116 238.534 328.16 238.968C328.2 239.407 328.312 239.666 328.289 239.673C328.281 239.675 328.246 239.614 328.2 239.495C328.154 239.377 328.102 239.201 328.069 238.977C328.002 238.534 328.048 237.882 328.394 237.26C328.742 236.639 329.294 236.223 329.726 236.013C329.943 235.906 330.13 235.841 330.262 235.806C330.394 235.77 330.469 235.76 330.471 235.768Z" fill="#17282F"/>
<path d="M326.665 239.382C326.682 239.408 326.098 239.758 325.316 240.083C324.534 240.409 323.862 240.583 323.852 240.553C323.84 240.521 324.488 240.3 325.263 239.976C326.039 239.655 326.647 239.352 326.665 239.382Z" fill="#17282F"/>
<path d="M328.546 238.588C328.58 238.6 328.555 238.731 328.557 238.889C328.555 239.048 328.58 239.179 328.546 239.191C328.515 239.204 328.428 239.073 328.428 238.889C328.428 238.707 328.514 238.575 328.546 238.588Z" fill="#17282F"/>
<path d="M328.857 237.482C328.89 237.494 328.873 237.611 328.819 237.745C328.766 237.879 328.694 237.979 328.662 237.967C328.628 237.957 328.645 237.839 328.699 237.704C328.753 237.57 328.823 237.471 328.857 237.482Z" fill="#17282F"/>
<path d="M329.691 236.691C329.699 236.724 329.57 236.776 329.451 236.88C329.33 236.982 329.265 237.096 329.229 237.086C329.195 237.081 329.215 236.921 329.363 236.795C329.512 236.666 329.687 236.66 329.691 236.691Z" fill="#17282F"/>
<path d="M330.33 236.216C330.355 236.239 330.322 236.307 330.255 236.369C330.19 236.431 330.116 236.462 330.091 236.439C330.065 236.416 330.098 236.348 330.164 236.287C330.23 236.225 330.304 236.194 330.33 236.216Z" fill="#17282F"/>
<path d="M318.426 123.662L316.656 103.922L325.749 104.07C325.749 104.07 326.171 101.16 324.831 94.7748C324.009 90.8603 321.156 88.4587 317.956 87.032L317.957 86.98L317.68 86.9136C313.61 85.1728 309.35 84.9273 309.35 84.9273L298.188 85.0451C298.188 85.0451 289.66 84.073 284.94 89.6282C283.122 91.7677 277.496 106.414 277.496 106.414L290.894 112.311L289.619 104.189C289.619 104.189 289.873 110.078 290.695 111.943C291.153 112.983 292.48 116.21 292.48 116.21L292.306 125.951L318.426 123.662Z" fill="#9C1C21"/>
<path d="M312.266 101.057L310.609 107.508H326.24L325.211 96.6925L312.266 101.057Z" fill="#9C1C21"/>
<path d="M326.24 107.508C326.241 107.465 325.451 107.389 324.171 107.32C322.889 107.251 321.117 107.193 319.158 107.202C317.198 107.21 315.426 107.288 314.145 107.381C312.866 107.474 312.078 107.573 312.082 107.614C312.086 107.66 312.878 107.639 314.159 107.604C315.439 107.568 317.206 107.526 319.159 107.517C321.113 107.509 322.881 107.532 324.162 107.543C325.443 107.556 326.237 107.552 326.24 107.508Z" fill="#17282F"/>
<path d="M311.593 96.6405C311.545 96.6422 311.529 97.2692 311.541 98.2817C311.552 99.2937 311.593 100.691 311.658 102.234C311.724 103.777 311.802 105.173 311.876 106.183C311.95 107.193 312.02 107.817 312.068 107.815C312.115 107.814 312.132 107.186 312.12 106.174C312.108 105.163 312.069 103.765 312.003 102.222C311.937 100.679 311.859 99.2827 311.784 98.2729C311.71 97.2632 311.641 96.6394 311.593 96.6405Z" fill="#17282F"/>
<path d="M310.23 125.156C309.349 125.156 308.521 124.958 307.744 124.599L314.927 123.97C313.093 125.117 310.609 125.144 310.609 125.144C310.482 125.152 310.355 125.156 310.23 125.156Z" fill="#A7A9A8"/>
<path d="M307.744 124.598C300.153 121.094 297.369 102.227 297.369 102.227L316.42 121.373V122.425C316.069 123.088 315.533 123.59 314.927 123.969L307.744 124.598Z" fill="#BA2C42"/>
<path d="M310.935 111.593L309.725 109.568L311.543 98.3443C311.556 99.3507 311.596 100.723 311.66 102.234C311.674 102.58 311.69 102.919 311.706 103.247L310.612 107.509H311.999C312.025 107.707 312.049 107.815 312.069 107.815H312.069C312.085 107.815 312.097 107.749 312.106 107.626C312.152 107.637 312.276 107.641 312.468 107.641C312.592 107.641 312.746 107.639 312.926 107.636L310.935 111.593Z" fill="#BA2C42"/>
<path d="M311.997 107.508H310.609L311.703 103.246C311.758 104.383 311.818 105.399 311.875 106.182C311.919 106.771 311.96 107.229 311.997 107.508Z" fill="#BA2C42"/>
<path d="M312.465 107.64C312.274 107.64 312.15 107.636 312.104 107.625C312.104 107.622 312.104 107.618 312.104 107.614L312.925 107.633L312.924 107.635C312.744 107.638 312.59 107.64 312.465 107.64Z" fill="#0F191D"/>
<path d="M312.067 107.815C312.048 107.815 312.023 107.707 311.997 107.509C311.96 107.23 311.919 106.772 311.876 106.183C311.819 105.4 311.758 104.384 311.704 103.247C311.688 102.919 311.672 102.58 311.658 102.234C311.594 100.723 311.554 99.3507 311.541 98.3442L311.592 98.0279L312.083 107.615H312.104C312.104 107.619 312.104 107.622 312.104 107.626C312.095 107.749 312.083 107.815 312.067 107.815H312.067Z" fill="#0F191D"/>
<path d="M292.479 116.211C292.458 116.218 292.365 116.022 292.215 115.661C292.063 115.3 291.861 114.772 291.628 114.115C291.161 112.802 290.585 110.963 290.133 108.892C289.684 106.82 289.464 104.915 289.392 103.533C289.356 102.843 289.345 102.283 289.356 101.897C289.364 101.51 289.38 101.297 289.402 101.296C289.451 101.296 289.485 102.149 289.615 103.519C289.743 104.89 289.996 106.777 290.442 108.836C290.891 110.894 291.43 112.732 291.841 114.056C292.033 114.671 292.197 115.194 292.331 115.625C292.446 115.997 292.5 116.205 292.479 116.211Z" fill="#17282F"/>
<path d="M296.43 122.976C296.346 122.998 296.105 122.491 295.89 121.842C295.675 121.192 295.568 120.647 295.651 120.623C295.735 120.601 295.976 121.108 296.191 121.758C296.407 122.407 296.513 122.952 296.43 122.976Z" fill="#17282F"/>
<path d="M297.779 122.885C297.699 122.904 297.436 122.142 297.423 121.164C297.404 120.187 297.643 119.418 297.724 119.435C297.814 119.45 297.719 120.217 297.738 121.16C297.75 122.103 297.869 122.868 297.779 122.885Z" fill="#17282F"/>
<path d="M291.166 112.581C291.127 112.653 288.009 111.301 284.202 109.563C280.395 107.823 277.34 106.356 277.379 106.286C277.418 106.214 280.536 107.566 284.343 109.305C288.15 111.043 291.205 112.51 291.166 112.581Z" fill="#17282F"/>
<path d="M296.661 86.955C296.73 84.1574 296.747 81.2117 296.747 81.2117C296.747 81.2117 292.821 80.5199 292.137 75.7985C291.485 71.2961 293.31 60.7314 293.31 60.7314C299.045 58.7501 305.005 60.5462 308.935 64.7931L307.959 87.5063C307.846 90.1429 305.275 92.1541 302.187 92.0219C299.067 91.8881 296.594 89.6209 296.661 86.955Z" fill="#FCB997"/>
<path d="M293.011 69.1753C292.989 69.4933 293.266 69.7726 293.629 69.7985C293.992 69.8251 294.303 69.589 294.325 69.271C294.346 68.953 294.069 68.6738 293.707 68.6472C293.343 68.6207 293.032 68.8574 293.011 69.1753Z" fill="#17282F"/>
<path d="M292.765 68.3822C292.845 68.4629 293.355 68.1361 294.065 68.1549C294.774 68.1643 295.286 68.5105 295.365 68.4325C295.404 68.3982 295.325 68.2544 295.102 68.0979C294.883 67.9425 294.506 67.7871 294.064 67.7789C293.621 67.77 293.245 67.9105 293.027 68.0576C292.805 68.2052 292.727 68.3457 292.765 68.3822Z" fill="#17282F"/>
<path d="M300.214 69.5849C300.193 69.9029 300.47 70.1816 300.833 70.2087C301.196 70.2347 301.508 69.9991 301.529 69.6806C301.55 69.3626 301.273 69.0834 300.91 69.0568C300.547 69.0303 300.235 69.267 300.214 69.5849Z" fill="#17282F"/>
<path d="M300.168 68.7931C300.248 68.8738 300.757 68.5475 301.467 68.5658C302.176 68.5752 302.688 68.9213 302.768 68.8439C302.806 68.8091 302.728 68.6659 302.504 68.5094C302.285 68.3534 301.909 68.1986 301.466 68.1898C301.024 68.1815 300.648 68.3214 300.429 68.469C300.207 68.6167 300.129 68.7571 300.168 68.7931Z" fill="#17282F"/>
<path d="M297.455 73.545C297.459 73.5085 297.019 73.4284 296.307 73.3283C296.126 73.3067 295.955 73.2697 295.928 73.1558C295.888 73.0352 295.969 72.8582 296.063 72.6675C296.244 72.271 296.435 71.8546 296.635 71.4188C297.43 69.6399 298.011 68.1756 297.931 68.1468C297.853 68.1181 297.145 69.5365 296.349 71.3154C296.158 71.7545 295.974 72.1725 295.8 72.5724C295.726 72.7593 295.602 72.9699 295.687 73.2204C295.733 73.3454 295.863 73.4383 295.979 73.4698C296.094 73.5052 296.196 73.5091 296.285 73.5163C297.004 73.5688 297.45 73.5821 297.455 73.545Z" fill="#17282F"/>
<path d="M296.746 81.2126C296.746 81.2126 300.202 81.4979 303.684 79.6946C303.684 79.6946 301.922 82.8853 296.785 82.324L296.746 81.2126Z" fill="#FFBE9D"/>
<path d="M302.441 66.9219C302.295 67.1249 301.755 67.0347 301.15 66.9352C300.548 66.824 300.009 66.7262 299.955 66.4884C299.895 66.2606 300.52 65.9454 301.328 66.0864C302.135 66.2263 302.589 66.73 302.441 66.9219Z" fill="#17282F"/>
<path d="M295.38 65.9695C295.325 66.2056 294.747 66.2919 294.08 66.3234C293.412 66.3483 292.828 66.3107 292.75 66.0795C292.67 65.8561 293.234 65.4928 294.036 65.4602C294.839 65.4253 295.436 65.74 295.38 65.9695Z" fill="#17282F"/>
<path d="M297.466 75.0984C297.316 75.0608 297.148 75.1382 297.073 75.2626C296.983 75.4103 297.024 75.6138 297.166 75.7227C297.307 75.8317 297.533 75.8344 297.677 75.7294C297.822 75.6237 297.869 75.4219 297.784 75.2715C297.7 75.1216 297.492 75.0398 297.314 75.0868" fill="#FFBE9D"/>
<path d="M297.632 75.162C297.664 75.136 297.519 74.9768 297.208 75.0381C297.066 75.0674 296.877 75.1852 296.82 75.386C296.764 75.5751 296.815 75.8206 297.034 75.9738C297.261 76.1203 297.535 76.0899 297.715 75.9777C297.908 75.8615 297.963 75.6492 297.933 75.5165C297.87 75.2251 297.634 75.1786 297.628 75.2195C297.601 75.256 297.71 75.3567 297.689 75.5292C297.679 75.6138 297.635 75.6923 297.545 75.7321C297.458 75.7764 297.319 75.7758 297.239 75.72C297.155 75.6663 297.112 75.5452 297.13 75.4523C297.142 75.36 297.21 75.2903 297.293 75.2477C297.461 75.1609 297.61 75.2018 297.632 75.162Z" fill="#17282F"/>
<path d="M306.555 70.3411C305.943 71.6373 304.449 72.6359 304.656 74.035C304.789 74.9386 305.424 75.7808 305.3 76.6849C305.145 77.8213 303.854 78.6087 303.672 79.7407C303.447 81.1298 304.926 82.2092 305.516 83.5054C306.376 85.3933 305.276 87.5156 305.25 89.56C305.211 92.6915 308.125 95.6168 311.54 95.8739C312.921 95.9779 314.477 95.5969 315.194 94.5125C315.784 93.6172 315.666 92.4808 316.021 91.4871C316.548 90.0068 318.092 88.924 318.418 87.3962C319.011 84.6108 315.327 82.306 315.569 79.4769C315.673 78.2686 316.489 77.2141 316.837 76.044C317.291 74.5111 316.875 72.7847 315.756 71.5692C314.847 70.5811 313.528 69.9313 312.754 68.8519C311.876 67.6276 311.846 66.0754 311.515 64.6431C310.708 61.1538 307.84 58.1218 304.178 56.8875C300.516 55.6533 296.181 56.2571 293.087 58.4326C293.087 58.4326 292.207 62.0773 296.302 62.6867C300.395 63.2961 302.292 62.5927 302.754 64.0924C302.754 64.0924 302.288 65.8442 303.98 67.517C305.673 69.1903 307.263 68.8403 306.555 70.3411Z" fill="#17282F"/>
<path d="M313.088 95.6188C313.086 95.6288 312.958 95.6161 312.714 95.5829C312.471 95.5486 312.114 95.4745 311.673 95.3263C310.799 95.0343 309.561 94.3984 308.505 93.1835C307.981 92.5818 307.49 91.8514 307.159 90.9931C306.82 90.1399 306.626 89.1727 306.608 88.1541C306.582 87.1344 306.741 86.066 307.045 84.9966C307.197 84.4607 307.394 83.9271 307.624 83.3968C307.851 82.8643 308.129 82.3511 308.289 81.8081C308.461 81.2667 308.438 80.7137 308.283 80.1862C308.125 79.6581 307.856 79.1626 307.594 78.6721C307.331 78.1822 307.062 77.6933 306.889 77.1735C306.713 76.6581 306.648 76.1024 306.762 75.5843C307.003 74.5424 307.696 73.7716 308.104 72.9808C308.537 72.1967 308.672 71.3689 308.652 70.6251C308.579 69.1188 307.876 68.0051 307.303 67.3631C306.705 66.7199 306.251 66.4755 306.274 66.4484C306.274 66.4484 306.754 66.6552 307.396 67.2901C308.01 67.9238 308.769 69.053 308.874 70.6163C308.911 71.3866 308.782 72.2592 308.339 73.0848C307.922 73.9049 307.254 74.6812 307.048 75.6346C306.835 76.5951 307.332 77.5844 307.871 78.5471C308.135 79.0382 308.415 79.5464 308.585 80.111C308.755 80.6717 308.779 81.3049 308.592 81.8827C308.421 82.4628 308.137 82.9826 307.915 83.503C307.689 84.0228 307.494 84.5453 307.343 85.069C307.042 86.1147 306.881 87.1576 306.899 88.1502C306.906 90.1432 307.655 91.8862 308.68 93.0574C309.685 94.2563 310.873 94.9033 311.718 95.2218C312.575 95.5386 313.096 95.5862 313.088 95.6188Z" fill="#33535F"/>
<path d="M312.485 67.7149C312.487 67.7332 312.168 67.7857 311.584 67.8377C311.002 67.8819 310.142 67.9433 309.092 67.778C308.066 67.6065 306.768 67.1459 305.947 66.0339C305.544 65.4759 305.384 64.8007 305.121 64.1775C304.874 63.5471 304.397 63.0013 303.743 62.623C302.419 61.8566 300.861 61.7621 299.499 61.6105C298.129 61.4695 296.843 61.2041 295.972 60.6063C295.094 60.0356 294.644 59.2941 294.528 58.7599C294.462 58.4928 294.468 58.2777 294.481 58.1367C294.503 57.9946 294.52 57.9221 294.531 57.9232C294.569 57.9238 294.489 58.2274 294.647 58.7328C294.793 59.2327 295.248 59.9162 296.1 60.4399C296.939 60.9829 298.169 61.2207 299.533 61.3468C300.883 61.4861 302.496 61.563 303.914 62.3814C304.614 62.7801 305.156 63.4066 305.409 64.0757C305.679 64.7338 305.829 65.3819 306.191 65.8901C306.929 66.9192 308.149 67.3898 309.134 67.5778C310.145 67.7641 310.996 67.7354 311.576 67.726C312.159 67.7088 312.483 67.6939 312.485 67.7149Z" fill="#33535F"/>
<path d="M310.986 63.2117C310.99 63.2261 310.741 63.2963 310.277 63.3074C309.816 63.319 309.125 63.2443 308.366 62.9142C307.988 62.75 307.599 62.5144 307.242 62.1998C306.879 61.8868 306.581 61.482 306.303 61.0551C305.757 60.214 305.233 59.1766 304.101 58.7475C302.992 58.3134 301.771 58.4102 300.711 58.4754C299.64 58.5722 298.636 58.6004 297.817 58.4533C296.993 58.3222 296.374 58.0104 296.032 57.7217C295.858 57.5785 295.74 57.4513 295.676 57.3567C295.608 57.2633 295.577 57.2129 295.585 57.2069C295.611 57.1892 295.755 57.3849 296.11 57.6349C296.462 57.8843 297.057 58.1514 297.854 58.2526C298.651 58.3687 299.61 58.3222 300.686 58.2111C301.752 58.1342 303.009 58.012 304.229 58.4843C304.831 58.7187 305.323 59.1323 305.673 59.5808C306.029 60.0293 306.285 60.4982 306.554 60.9213C306.821 61.3443 307.095 61.7314 307.426 62.03C307.753 62.3319 308.113 62.5647 308.466 62.7323C309.175 63.0685 309.832 63.173 310.28 63.1951C310.73 63.2189 310.982 63.1868 310.986 63.2117Z" fill="#33535F"/>
<path d="M314.897 94.4255C314.866 94.4127 315.058 94.0572 315.282 93.3764C315.504 92.6979 315.724 91.6777 315.685 90.4125C315.638 89.155 315.307 87.6343 314.395 86.1899C313.952 85.4655 313.28 84.8201 312.732 84.0249C312.46 83.6279 312.225 83.1828 312.122 82.6901C312.021 82.1968 312.083 81.6731 312.256 81.1975C312.596 80.2431 313.204 79.4385 313.335 78.5609C313.496 77.6806 313.01 76.8776 312.549 76.1637C312.316 75.7999 312.083 75.4404 311.901 75.0644C311.72 74.6884 311.605 74.2924 311.559 73.9098C311.467 73.1411 311.565 72.435 311.628 71.8013C311.802 70.5382 311.674 69.5003 311.341 68.8627C311.018 68.2168 310.595 68.0233 310.627 67.9973L310.7 68.0288C310.744 68.0553 310.815 68.0902 310.892 68.1549C311.054 68.2749 311.269 68.4878 311.451 68.8135C311.834 69.4594 311.998 70.5443 311.849 71.8184C311.8 72.4549 311.719 73.1528 311.818 73.8805C311.899 74.6154 312.313 75.3094 312.799 76.0283C313.034 76.3927 313.283 76.7726 313.458 77.2034C313.637 77.6314 313.718 78.1202 313.639 78.5996C313.492 79.5668 312.869 80.3852 312.556 81.2844C312.394 81.7328 312.342 82.194 312.43 82.6381C312.522 83.081 312.735 83.4946 312.994 83.8762C313.513 84.6404 314.19 85.2985 314.646 86.0572C315.575 87.5585 315.888 89.1229 315.908 90.4075C315.918 91.7009 315.659 92.7333 315.399 93.4102C315.263 93.748 315.149 94.0068 315.051 94.1738C314.959 94.3436 314.907 94.4299 314.897 94.4255Z" fill="#33535F"/>
<path d="M290.247 197.459C290.247 197.459 286.172 162.156 285.938 149.111C285.704 136.066 292.356 123.195 292.356 123.195L318.425 122.188C318.425 122.188 323.578 135.424 323.67 140.983C323.849 151.787 320.528 162.457 320.912 171.027L321.783 197.459" fill="#17282F"/>
<path d="M322.656 154.058C322.661 154.066 322.513 154.168 322.23 154.352C322.158 154.399 322.078 154.451 321.992 154.505C321.911 154.569 321.831 154.648 321.74 154.728C321.557 154.889 321.344 155.071 321.159 155.323C320.317 156.265 319.703 157.948 319.12 160.048C318.798 161.091 318.472 162.261 317.8 163.406C317.62 163.686 317.458 163.983 317.221 164.243C317.108 164.375 317.005 164.518 316.881 164.645L316.479 165.012C315.935 165.501 315.245 165.87 314.519 166.161C313.059 166.746 311.412 167.023 309.907 167.713C308.392 168.387 307.257 169.694 306.561 171.198C305.827 172.697 305.382 174.27 304.769 175.739C304.168 177.196 303.349 178.614 302.048 179.51C300.757 180.439 299.163 180.651 297.781 180.732C296.378 180.807 295.078 180.771 293.912 180.931C292.751 181.079 291.722 181.415 290.995 181.938C290.264 182.462 289.838 183.12 289.638 183.683C289.432 184.252 289.469 184.733 289.537 185.038C289.605 185.349 289.7 185.497 289.679 185.506C289.679 185.506 289.565 185.366 289.476 185.052C289.384 184.743 289.325 184.245 289.521 183.65C289.711 183.06 290.135 182.371 290.884 181.812C291.637 181.252 292.695 180.894 293.879 180.73C295.066 180.553 296.381 180.579 297.764 180.494C299.132 180.403 300.658 180.184 301.871 179.299C303.1 178.445 303.89 177.081 304.481 175.638C305.083 174.187 305.525 172.611 306.274 171.08C306.977 169.549 308.181 168.159 309.767 167.461C311.332 166.751 312.98 166.483 314.403 165.917C315.112 165.637 315.77 165.289 316.29 164.826L316.676 164.48C316.796 164.359 316.895 164.222 317.005 164.096C317.234 163.849 317.394 163.562 317.57 163.293C318.233 162.188 318.571 161.03 318.905 159.993C319.514 157.905 320.172 156.194 321.063 155.253C321.258 155.003 321.483 154.822 321.677 154.665C321.773 154.587 321.857 154.509 321.943 154.449C322.033 154.397 322.117 154.349 322.193 154.305C322.492 154.134 322.65 154.049 322.656 154.058Z" fill="#FAFAF9"/>
<path d="M322.817 137.72C322.828 137.72 322.84 137.882 322.851 138.193C322.856 138.504 322.815 138.965 322.67 139.544C322.368 140.695 321.448 142.275 319.725 143.705C318.874 144.424 317.847 145.118 316.672 145.744C315.504 146.377 314.216 146.98 312.895 147.661C311.58 148.345 310.223 149.118 309.031 150.145C307.823 151.159 306.919 152.492 306.104 153.904C305.281 155.313 304.553 156.748 303.566 157.99C303.077 158.61 302.524 159.177 301.912 159.662C301.296 160.143 300.626 160.535 299.944 160.86C298.577 161.508 297.184 161.909 295.893 162.278C294.6 162.644 293.393 162.967 292.338 163.372C291.281 163.77 290.366 164.221 289.626 164.699C288.886 165.177 288.324 165.679 287.924 166.133C287.118 167.045 286.949 167.706 286.904 167.684C286.893 167.681 286.951 167.527 287.071 167.236C287.212 166.953 287.428 166.533 287.828 166.064C288.22 165.591 288.781 165.068 289.524 164.568C290.266 164.069 291.188 163.6 292.252 163.184C293.316 162.763 294.528 162.426 295.814 162.051C297.099 161.672 298.476 161.265 299.809 160.624C300.474 160.304 301.123 159.92 301.715 159.453C302.305 158.982 302.839 158.432 303.316 157.825C304.277 156.61 304.999 155.186 305.826 153.768C306.643 152.35 307.575 150.979 308.819 149.94C310.045 148.89 311.425 148.112 312.753 147.43C314.085 146.751 315.376 146.157 316.54 145.537C317.709 144.927 318.727 144.253 319.575 143.556C321.29 142.165 322.218 140.636 322.552 139.515C322.877 138.384 322.769 137.718 322.817 137.72Z" fill="#FAFAF9"/>
<path d="M286.069 150.979C286.064 150.981 286.046 150.946 286.016 150.873C285.99 150.799 285.934 150.692 285.899 150.543C285.826 150.248 285.779 149.781 285.96 149.218C286.296 148.092 287.635 146.691 289.791 145.989C290.865 145.652 292.082 145.448 293.351 145.145C294.604 144.836 295.971 144.404 296.992 143.446C297.498 142.973 297.926 142.41 298.282 141.791C298.63 141.167 298.916 140.496 299.187 139.805C299.729 138.426 300.184 136.926 301.105 135.564C302.019 134.191 303.51 133.237 305.052 132.76C306.591 132.243 308.142 132.014 309.581 131.711C311.025 131.424 312.375 131.052 313.52 130.485C314.649 129.899 315.548 129.119 316.185 128.292C317.491 126.633 317.832 124.934 317.879 123.812C317.907 122.671 317.709 122.05 317.75 122.045C317.75 122.045 317.992 122.655 318.001 123.814C317.992 124.953 317.681 126.693 316.366 128.409C315.725 129.265 314.81 130.078 313.647 130.694C312.473 131.288 311.095 131.674 309.646 131.969C308.199 132.281 306.657 132.516 305.16 133.024C303.653 133.498 302.254 134.401 301.372 135.717C300.483 137.029 300.026 138.511 299.477 139.899C299.203 140.596 298.91 141.278 298.55 141.918C298.181 142.555 297.73 143.141 297.196 143.634C296.112 144.639 294.685 145.074 293.417 145.376C292.13 145.673 290.92 145.863 289.862 146.182C287.764 146.836 286.432 148.179 286.077 149.251C285.885 149.788 285.909 150.239 285.961 150.532C286.029 150.823 286.083 150.975 286.069 150.979Z" fill="#FAFAF9"/>
<path d="M320.574 180.831C320.585 180.83 320.599 180.949 320.617 181.178C320.631 181.406 320.611 181.749 320.505 182.176C320.292 183.028 319.572 184.194 318.218 185.164C317.551 185.655 316.745 186.105 315.818 186.465C314.895 186.828 313.873 187.114 312.805 187.418C311.74 187.722 310.621 188.04 309.533 188.51C308.438 188.968 307.426 189.64 306.555 190.495C305.672 191.34 304.911 192.263 304.065 193.078C303.224 193.898 302.267 194.573 301.277 195.073C299.285 196.077 297.221 196.423 295.522 196.44C293.81 196.457 292.452 196.128 291.561 195.838C291.112 195.695 290.778 195.552 290.556 195.445C290.333 195.343 290.218 195.285 290.223 195.276C290.228 195.267 290.352 195.308 290.583 195.392C290.811 195.482 291.15 195.607 291.601 195.732C292.494 195.987 293.838 196.279 295.518 196.236C297.185 196.193 299.201 195.833 301.135 194.841C302.099 194.346 303.019 193.69 303.841 192.885C304.668 192.082 305.427 191.159 306.326 190.296C307.213 189.423 308.279 188.718 309.4 188.255C310.518 187.777 311.651 187.462 312.721 187.164C313.79 186.867 314.807 186.591 315.717 186.246C316.625 185.904 317.42 185.473 318.079 185.004C319.419 184.076 320.142 182.967 320.387 182.148C320.625 181.32 320.531 180.83 320.574 180.831Z" fill="#FAFAF9"/>
<path d="M317.604 107.532L312.563 107.641C312.232 109.193 311.423 110.254 311.423 110.254C307.208 103.568 303.94 94.6093 303.129 91.0089C303.247 90.6489 303.387 90.2513 303.562 89.8061C303.763 89.293 303.59 88.3214 303.495 87.7817C303.354 86.9804 303.109 85.9015 303.035 85.4022C302.81 83.8809 302.542 83.642 301.961 83.814C301.172 84.0479 302.285 88.0869 301.638 88.1743C301.29 88.2213 300.864 86.8377 300.741 85.7024C300.618 84.5672 300.056 81.0751 299.645 80.8423C299.043 80.5011 298.519 81.0408 298.671 82.1711C298.824 83.3158 299.019 86.7277 298.362 86.7741C297.715 86.8195 297.172 81.0297 297.172 81.0297C297.172 81.0297 297.275 79.77 296.515 79.7999C295.144 79.8546 296.215 85.9585 296.332 86.5363C296.414 86.9389 295.702 87.0125 295.639 86.5762C295.575 86.1266 295.244 80.7859 293.848 80.829C292.776 80.8622 294.678 85.8589 294.076 87.0174C293.475 88.1754 293.057 83.0835 292.034 83.1537C291.653 83.1797 291.372 83.2477 292.071 86.1293C292.448 87.6782 293.552 90.5261 294.518 92.8835C296.139 100.875 303.253 126.437 314.408 121.757C320.649 119.139 323.182 107.535 323.182 107.535L317.604 107.532Z" fill="#FCB997"/>
<path d="M296.092 86.9276C296.092 86.9276 296.142 86.9364 296.237 86.9093C296.322 86.8856 296.491 86.7882 296.465 86.5903C296.45 86.2469 296.391 85.747 296.305 85.1005C296.24 84.4497 296.027 83.6689 296.026 82.7443C296.018 82.2814 296.031 81.7838 296.06 81.2562C296.079 80.9924 296.084 80.7187 296.148 80.4599C296.196 80.2094 296.379 79.9229 296.591 79.9572L296.614 79.9611L296.624 79.9606C296.84 79.9517 297.008 80.1049 297.077 80.3388C297.152 80.5633 297.172 80.8276 297.156 81.0792L297.155 81.0898L297.157 81.0969C297.298 82.512 297.45 84.0604 297.803 85.7143C297.852 85.9206 297.903 86.1285 297.973 86.3381C298.007 86.4432 298.049 86.5488 298.099 86.655C298.131 86.7097 298.152 86.7617 298.202 86.8192C298.245 86.8673 298.299 86.9514 298.455 86.9641C298.706 86.9469 298.778 86.7733 298.835 86.6738C298.889 86.5588 298.923 86.4459 298.948 86.3337C299 86.1086 299.026 85.8847 299.045 85.6585C299.112 84.7571 299.078 83.8364 299.005 82.893C298.982 82.4158 298.853 81.9397 298.942 81.5078C298.984 81.2949 299.081 81.0804 299.239 80.9919C299.317 80.9487 299.405 80.9393 299.5 80.9615L299.644 81.0184C299.684 81.0538 299.674 81.0378 299.711 81.1003C299.913 81.4956 300.017 82.0116 300.13 82.4905C300.238 82.9793 300.33 83.4781 300.416 83.9824C300.501 84.4867 300.579 84.9971 300.645 85.5114C300.7 86.0251 300.781 86.5648 300.924 87.0841C300.997 87.3456 301.077 87.6066 301.197 87.8654C301.258 87.9954 301.322 88.1242 301.446 88.2564C301.491 88.3128 301.633 88.4184 301.809 88.377C301.979 88.325 302.028 88.2011 302.056 88.1287C302.154 87.8107 302.125 87.5464 302.12 87.2682C302.107 86.994 302.082 86.7224 302.057 86.4515C302.013 85.9859 301.965 85.5252 301.947 85.0707C301.939 84.8445 301.939 84.6189 301.965 84.4054C301.981 84.3015 302 84.1948 302.039 84.1173L302.097 84.0349L302.121 84.0211L302.199 84.0007C302.601 83.8491 302.734 84.3595 302.841 84.771C302.934 85.1995 302.993 85.643 303.087 86.0793C303.247 86.9503 303.45 87.8157 303.556 88.6474C303.6 89.0599 303.632 89.4885 303.503 89.8379C303.36 90.2377 303.219 90.6331 303.078 91.0241L303.066 91.0595L303.075 91.0965C303.812 94.0699 304.834 96.7303 305.782 99.0921C306.74 101.452 307.698 103.491 308.543 105.159C309.386 106.828 310.143 108.114 310.665 108.991C310.93 109.407 311.139 109.736 311.294 109.98C311.441 110.203 311.52 110.317 311.528 110.312C311.537 110.308 311.473 110.186 311.342 109.955C311.198 109.706 311.004 109.37 310.759 108.945C310.267 108.054 309.541 106.759 308.726 105.083C307.908 103.409 306.976 101.365 306.04 99.0058C305.114 96.6463 304.11 93.9787 303.393 91.0368L303.389 91.1092C303.528 90.7238 303.671 90.3334 303.813 89.9391C303.976 89.4879 303.928 89.0472 303.887 88.6158C303.779 87.751 303.581 86.911 303.424 86.0356C303.33 85.6032 303.273 85.1592 303.175 84.7057C303.118 84.4801 303.064 84.2517 302.928 84.0211C302.863 83.9094 302.762 83.7822 302.594 83.7137C302.425 83.6467 302.253 83.6655 302.117 83.696L302.015 83.7225L301.878 83.7933C301.801 83.8552 301.757 83.9249 301.725 83.9901C301.661 84.1229 301.643 84.2456 301.624 84.3678C301.594 84.6106 301.596 84.8467 301.604 85.0812C301.621 85.5501 301.67 86.0141 301.713 86.478C301.738 86.7484 301.763 87.0172 301.775 87.2821C301.786 87.5403 301.795 87.8251 301.731 88.0253C301.715 88.0833 301.685 88.0723 301.72 88.1005L301.722 88.1027L301.725 88.1237L301.724 88.1176L301.726 88.0988L301.735 88.0728L301.698 88.0424C301.632 87.9722 301.565 87.8571 301.513 87.7427C301.406 87.511 301.326 87.2594 301.256 87.0083C301.118 86.5012 301.04 85.998 300.983 85.4755C300.916 84.9556 300.836 84.4425 300.75 83.9348C300.662 83.4272 300.568 82.9257 300.457 82.4296C300.333 81.9308 300.252 81.4514 299.997 80.9526C299.982 80.9023 299.874 80.7911 299.808 80.7585C299.74 80.7215 299.664 80.6927 299.582 80.6717C299.419 80.6308 299.22 80.6496 299.071 80.7369C298.77 80.9183 298.678 81.2064 298.623 81.4564C298.575 81.7141 298.582 81.9684 298.613 82.214C298.643 82.4501 298.669 82.6818 298.689 82.9152C298.765 83.8464 298.804 84.7627 298.743 85.6386C298.727 85.8565 298.702 86.0732 298.656 86.2773C298.634 86.3801 298.603 86.4786 298.564 86.5637L298.498 86.6671C298.476 86.7136 298.457 86.6566 298.458 86.7313C298.489 86.6743 298.459 86.7064 298.436 86.6588L298.364 86.5438C298.321 86.4537 298.283 86.3586 298.25 86.2601C298.182 86.0638 298.131 85.8609 298.082 85.6596C297.723 84.0355 297.554 82.4827 297.399 81.0781V81.0958C297.411 80.8116 297.391 80.5406 297.299 80.2736C297.253 80.1425 297.186 80.0092 297.063 79.9053C296.943 79.7991 296.769 79.751 296.615 79.756L296.648 79.7593C296.405 79.7195 296.227 79.8544 296.126 79.9877C296.023 80.1248 295.976 80.2735 295.94 80.4168C295.874 80.7071 295.875 80.9836 295.86 81.2479C295.837 81.7799 295.833 82.2803 295.85 82.7481C295.87 83.6915 296.102 84.4729 296.184 85.1155C296.289 85.758 296.368 86.2568 296.402 86.593C296.44 86.7528 296.299 86.8557 296.225 86.8823C296.141 86.916 296.09 86.9209 296.092 86.9276Z" fill="#FFBE9D"/>
<path d="M256.687 115.145C256.687 115.145 255.013 115.072 253.182 115.512C250.057 116.263 244.663 119.251 244.439 122.942H248.357C248.357 122.942 246.163 127.21 246.808 126.815C248.481 125.789 251.811 122.697 251.811 122.697L256.687 115.145Z" fill="#FCB997"/>
<path d="M310.13 50.8962C310.043 50.9029 309.687 47.9422 309.336 44.2842C308.983 40.6251 308.769 37.6539 308.855 37.6468C308.942 37.6401 309.297 40.5997 309.65 44.2593C310.002 47.9173 310.217 50.889 310.13 50.8962Z" fill="#17282F"/>
<path d="M327.321 37.828C327.392 37.8745 324.745 41.3853 321.409 45.6693C318.073 49.9549 315.31 53.3906 315.24 53.3453C315.169 53.2988 317.816 49.7885 321.152 45.5029C324.488 41.2183 327.25 37.7815 327.321 37.828Z" fill="#17282F"/>
<path d="M334.463 53.7406C334.481 53.8186 331.391 54.465 327.564 55.1839C323.735 55.9028 320.618 56.4226 320.6 56.3446C320.583 56.2666 323.672 55.6208 327.5 54.9019C331.328 54.183 334.446 53.6632 334.463 53.7406Z" fill="#17282F"/>
<path d="M128.661 129.695L107.264 230.225L104.463 243.385L247.306 242.741C253.717 242.712 259.398 237.511 261.46 229.782L286.789 134.872C288.355 129.005 284.92 122.903 280.054 122.908L135.479 123.047C132.288 123.05 129.496 125.772 128.661 129.695Z" fill="#FCB997"/>
<path d="M249.133 242.593C250.161 242.366 251.036 242.115 251.781 241.854C250.926 242.198 250.04 242.447 249.133 242.593Z" fill="#7E1C2C"/>
<path d="M250.593 239.631C235.099 239.631 233.605 223.425 233.604 223.414L219.963 122.965L280.054 122.908C280.055 122.908 280.057 122.908 280.059 122.908C284.114 122.908 287.175 127.151 287.172 131.96C287.171 132.918 287.049 133.898 286.789 134.872L275.885 175.73L271.542 192.006L261.46 229.782C260.397 233.767 258.371 237.08 255.78 239.359C255.91 239.169 255.95 239.057 255.95 239.057C254.001 239.452 252.219 239.631 250.593 239.631Z" fill="#7E1C2C"/>
<path d="M233.602 223.414L218.478 112.041C217.859 107.478 213.881 104.074 209.184 104.088L176.02 104.187C173.565 104.194 171.212 105.148 169.469 106.841L153.722 122.139L61.4869 122.579C55.851 122.605 51.5206 127.479 52.2676 132.955L66.3096 235.892C66.9311 240.449 70.9018 243.849 75.592 243.841L236.336 243.55C254.24 243.889 255.949 239.058 255.949 239.058C235.431 243.213 233.604 223.427 233.602 223.414Z" fill="#9C1C21"/>
<path d="M158.872 206.444L140.99 191.744L146.412 186.423L164.293 201.123L158.872 206.444ZM134.998 186.818L117.117 172.118L122.538 166.797L140.42 181.497L134.998 186.818Z" fill="#EEEEEE"/>
<path d="M124.81 207.625L118.818 202.699L134.997 186.819L140.418 181.498L156.598 165.618L162.589 170.544L146.41 186.424L140.989 191.745L124.81 207.625Z" fill="#EEEEEE"/>
<path d="M256.558 57.3883C256.172 57.2374 255.894 56.8934 255.874 56.4837L255.633 51.3503C255.617 51.0274 255.768 50.716 256.041 50.5109C256.313 50.3046 256.676 50.2272 257.02 50.3019C257.922 50.4965 258.918 50.3173 259.752 49.8086C260.519 49.3408 261.034 48.6518 261.165 47.9179C261.295 47.1869 261.047 46.3773 260.486 45.6972C259.883 44.9694 258.994 44.4784 258.101 44.3855C256.279 44.1936 254.312 45.4693 253.805 47.1709C253.642 47.7211 253.022 48.0457 252.42 47.8964C251.808 47.7427 251.463 47.1797 251.626 46.63C252.421 43.9547 255.442 42.0281 258.36 42.335C259.873 42.4943 261.306 43.2668 262.286 44.453C263.22 45.581 263.623 46.9646 263.393 48.2503C263.162 49.547 262.292 50.7404 261.005 51.525C260.076 52.0919 259.009 52.4043 257.943 52.4386L258.131 56.3957C258.157 56.9647 257.674 57.4464 257.051 57.4702C256.876 57.4774 256.709 57.4475 256.558 57.3883Z" fill="#9C1C21"/>
<path d="M258.213 59.4852C258.247 59.9502 257.863 60.3533 257.355 60.3854C256.846 60.4175 256.404 60.0663 256.369 59.6007C256.334 59.1362 256.719 58.7331 257.227 58.701C257.737 58.669 258.177 59.0201 258.213 59.4852Z" fill="#9C1C21"/>
<path d="M237.116 50.1489C237.123 50.1489 237.142 50.035 237.17 49.8121C237.199 49.5716 237.239 49.2442 237.289 48.8234C237.316 48.386 237.438 47.8573 237.582 47.2341C237.661 46.9244 237.703 46.5799 237.827 46.2315C237.945 45.8809 238.07 45.5088 238.203 45.1151C238.788 43.5617 239.691 41.6998 241.211 39.8468C242.72 37.9982 244.842 36.1722 247.567 34.7881C248.908 34.0571 250.442 33.5478 252.05 33.0982C253.684 32.7443 255.415 32.4418 257.224 32.4805C258.128 32.4363 259.04 32.5574 259.969 32.6287C260.434 32.6696 260.89 32.783 261.356 32.8571C261.823 32.9362 262.292 33.0191 262.749 33.164C264.617 33.602 266.431 34.4071 268.161 35.4052C271.632 37.4015 274.556 40.6481 276.159 44.5848C276.963 46.5539 277.348 48.7128 277.345 50.8932C277.393 53.078 276.93 55.2977 276.079 57.3863L275.806 58.0178L275.77 58.1013L275.808 58.1793C277.325 61.3739 278.814 64.5071 280.256 67.5424L280.51 67.2786C277.385 66.181 274.355 65.1176 271.448 64.0968L271.336 64.0575L271.248 64.1355C268.734 66.3612 265.731 67.8664 262.691 68.65C259.641 69.4358 256.569 69.4762 253.776 69.0227C250.976 68.5693 248.455 67.5905 246.353 66.3325C244.245 65.0744 242.554 63.5449 241.251 61.991C239.957 60.4189 239.104 58.8075 238.461 57.3686C237.895 55.8977 237.547 54.5921 237.379 53.5116C237.308 52.9718 237.244 52.4919 237.189 52.0732C237.177 51.6596 237.167 51.3079 237.159 51.0165C237.149 50.745 237.141 50.5304 237.135 50.369C237.128 50.2235 237.121 50.1489 237.116 50.1489C237.11 50.1489 237.106 50.2224 237.101 50.3684C237.099 50.5304 237.095 50.7444 237.092 51.0176C237.092 51.3101 237.09 51.664 237.09 52.0799C237.136 52.5024 237.19 52.9862 237.25 53.5304C237.399 54.6214 237.729 55.9425 238.284 57.4355C238.916 58.896 239.763 60.5344 241.058 62.1359C242.364 63.7202 244.067 65.2818 246.197 66.5703C248.322 67.8587 250.876 68.8657 253.718 69.3379C256.554 69.8102 259.677 69.7803 262.783 68.9901C265.88 68.2016 268.944 66.6759 271.513 64.4109L271.312 64.4496C274.218 65.4742 277.246 66.542 280.369 67.6441L280.826 67.8051L280.624 67.3798C279.184 64.3428 277.697 61.2096 276.181 58.0139L276.183 58.1749L276.462 57.5301C277.332 55.3945 277.803 53.125 277.754 50.8921C277.756 48.6636 277.358 46.4566 276.535 44.4454C274.892 40.4247 271.902 37.1206 268.36 35.0956C266.596 34.0825 264.746 33.2696 262.843 32.8283C262.378 32.6835 261.901 32.6 261.426 32.5209C260.951 32.4468 260.486 32.3334 260.014 32.2942C259.07 32.2245 258.142 32.1056 257.224 32.1537C255.385 32.1211 253.627 32.4352 251.971 32.8035C250.34 33.2674 248.787 33.7927 247.43 34.542C244.676 35.9615 242.54 37.8279 241.03 39.7119C239.51 41.5992 238.618 43.4921 238.051 45.0653C237.924 45.464 237.803 45.8417 237.691 46.1967C237.572 46.549 237.536 46.8973 237.462 47.2103C237.331 47.8407 237.221 48.3738 237.207 48.8145C237.173 49.2376 237.147 49.5677 237.129 49.8099C237.113 50.0338 237.109 50.1483 237.116 50.1489Z" fill="#17282F"/>
</svg>
