<svg width="168" height="168" viewBox="0 0 168 168" fill="none" xmlns="http://www.w3.org/2000/svg">
<path d="M92.3334 92.3332H75.6667V42.3332H92.3334V92.3332ZM92.3334 125.666H75.6667V109H92.3334V125.666ZM84.0001 0.666504C73.0566 0.666504 62.2203 2.82198 52.1098 7.00988C41.9993 11.1978 32.8127 17.3361 25.0745 25.0743C9.44648 40.7023 0.666748 61.8985 0.666748 83.9998C0.666748 106.101 9.44648 127.297 25.0745 142.925C32.8127 150.664 41.9993 156.802 52.1098 160.99C62.2203 165.178 73.0566 167.333 84.0001 167.333C106.101 167.333 127.298 158.553 142.926 142.925C158.554 127.297 167.333 106.101 167.333 83.9998C167.333 73.0563 165.178 62.22 160.99 52.1095C156.802 41.9991 150.664 32.8125 142.926 25.0743C135.187 17.3361 126.001 11.1978 115.89 7.00988C105.78 2.82198 94.9436 0.666504 84.0001 0.666504Z" fill="#D62A31"/>
</svg>
