<svg width="100" height="100" viewBox="0 0 100 100" fill="none" xmlns="http://www.w3.org/2000/svg">
<path d="M50.4999 53.2499C50.2082 53.2083 49.8332 53.2083 49.4999 53.2499C42.1666 52.9999 36.3333 46.9999 36.3333 39.6249C36.3333 32.0833 42.4166 25.9583 49.9999 25.9583C57.5416 25.9583 63.6666 32.0833 63.6666 39.6249C63.6249 46.9999 57.8332 52.9999 50.4999 53.2499Z" stroke="#292D32" stroke-width="1.5" stroke-linecap="round" stroke-linejoin="round"/>
<path d="M78.0834 80.75C70.6667 87.5417 60.8334 91.6667 50.0001 91.6667C39.1667 91.6667 29.3334 87.5417 21.9167 80.75C22.3334 76.8333 24.8334 73 29.2917 70C40.7084 62.4167 59.3751 62.4167 70.7084 70C75.1667 73 77.6668 76.8333 78.0834 80.75Z" stroke="#292D32" stroke-width="1.5" stroke-linecap="round" stroke-linejoin="round"/>
<path d="M49.9999 91.6666C73.0118 91.6666 91.6666 73.0118 91.6666 49.9999C91.6666 26.9881 73.0118 8.33325 49.9999 8.33325C26.9881 8.33325 8.33325 26.9881 8.33325 49.9999C8.33325 73.0118 26.9881 91.6666 49.9999 91.6666Z" stroke="#292D32" stroke-width="1.5" stroke-linecap="round" stroke-linejoin="round"/>
</svg>
